<svg width="123" height="107" viewBox="0 0 123 107" fill="none" xmlns="http://www.w3.org/2000/svg">
<path d="M0.926137 105V0.272724H44.1875C52.0284 0.272724 58.7955 1.80682 64.4886 4.875C70.2159 7.90909 74.6307 12.1534 77.733 17.6079C80.8352 23.0284 82.3864 29.3352 82.3864 36.5284C82.3864 43.7557 80.8011 50.0795 77.6307 55.5C74.4943 60.8864 70.0114 65.0625 64.1818 68.0284C58.3523 70.9943 51.4318 72.4773 43.4205 72.4773H16.7273V52.5341H38.7159C42.5341 52.5341 45.7216 51.8693 48.2784 50.5398C50.8693 49.2102 52.8295 47.3523 54.1591 44.9659C55.4886 42.5455 56.1534 39.733 56.1534 36.5284C56.1534 33.2898 55.4886 30.4943 54.1591 28.142C52.8295 25.7557 50.8693 23.9148 48.2784 22.6193C45.6875 21.3239 42.5 20.6761 38.7159 20.6761H26.2386V105H0.926137Z" fill="#EDEDED"/>
<path d="M108.926 106.483C105.244 106.483 102.091 105.188 99.4659 102.597C96.875 100.006 95.5966 96.8693 95.6307 93.1875C95.5966 89.5739 96.875 86.4886 99.4659 83.9318C102.091 81.3409 105.244 80.0455 108.926 80.0455C112.403 80.0455 115.472 81.3409 118.131 83.9318C120.824 86.4886 122.188 89.5739 122.222 93.1875C122.188 95.642 121.54 97.875 120.278 99.8864C119.051 101.898 117.432 103.5 115.42 104.693C113.443 105.886 111.278 106.483 108.926 106.483Z" fill="#FF4C29"/>
</svg>
