<svg width="178" height="39" viewBox="0 0 178 39" fill="none" xmlns="http://www.w3.org/2000/svg">
<path d="M0.642046 38V3.09091H15.0625C17.6761 3.09091 19.9318 3.60227 21.8295 4.625C23.7386 5.63636 25.2102 7.05113 26.2443 8.86932C27.2784 10.6761 27.7955 12.7784 27.7955 15.1761C27.7955 17.5852 27.267 19.6932 26.2102 21.5C25.1648 23.2955 23.6705 24.6875 21.7273 25.6761C19.7841 26.6648 17.4773 27.1591 14.8068 27.1591H5.90909V20.5114H13.2386C14.5114 20.5114 15.5739 20.2898 16.4261 19.8466C17.2898 19.4034 17.9432 18.7841 18.3864 17.9886C18.8295 17.1818 19.0511 16.2443 19.0511 15.1761C19.0511 14.0966 18.8295 13.1648 18.3864 12.3807C17.9432 11.5852 17.2898 10.9716 16.4261 10.5398C15.5625 10.108 14.5 9.89205 13.2386 9.89205H9.07955V38H0.642046ZM31.9545 38V11.8182H40.0511V16.5909H40.3239C40.8011 14.8636 41.5795 13.5795 42.6591 12.7386C43.7386 11.8864 44.9943 11.4602 46.4261 11.4602C46.8125 11.4602 47.2102 11.4886 47.6193 11.5455C48.0284 11.5909 48.4091 11.6648 48.7614 11.767V19.0114C48.3636 18.875 47.8409 18.767 47.1932 18.6875C46.5568 18.608 45.9886 18.5682 45.4886 18.5682C44.5 18.5682 43.608 18.7898 42.8125 19.233C42.0284 19.6648 41.4091 20.2727 40.9545 21.0568C40.5114 21.8295 40.2898 22.7386 40.2898 23.7841V38H31.9545ZM52.1577 38V11.8182H60.4929V38H52.1577ZM56.3338 8.76705C55.1634 8.76705 54.1577 8.38068 53.3168 7.60795C52.4759 6.82386 52.0554 5.88068 52.0554 4.77841C52.0554 3.6875 52.4759 2.75568 53.3168 1.98295C54.1577 1.19886 55.1634 0.806816 56.3338 0.806816C57.5156 0.806816 58.5213 1.19886 59.3509 1.98295C60.1918 2.75568 60.6122 3.6875 60.6122 4.77841C60.6122 5.88068 60.1918 6.82386 59.3509 7.60795C58.5213 8.38068 57.5156 8.76705 56.3338 8.76705ZM65.7983 38V11.8182H73.7244V16.625H74.0142C74.5597 15.0341 75.4801 13.7784 76.7756 12.858C78.071 11.9375 79.6165 11.4773 81.4119 11.4773C83.2301 11.4773 84.7869 11.9432 86.0824 12.875C87.3778 13.8068 88.2017 15.0568 88.554 16.625H88.8267C89.3153 15.0682 90.2699 13.8239 91.6903 12.892C93.1108 11.9489 94.7869 11.4773 96.7188 11.4773C99.196 11.4773 101.207 12.2727 102.753 13.8636C104.298 15.4432 105.071 17.6136 105.071 20.375V38H96.7358V22.2841C96.7358 20.9773 96.4006 19.983 95.7301 19.3011C95.0597 18.608 94.1903 18.2614 93.1222 18.2614C91.9744 18.2614 91.071 18.6364 90.4119 19.3864C89.7642 20.125 89.4403 21.1193 89.4403 22.3693V38H81.429V22.1989C81.429 20.983 81.0994 20.0227 80.4403 19.3182C79.7813 18.6136 78.9119 18.2614 77.8324 18.2614C77.1051 18.2614 76.4631 18.4375 75.9062 18.7898C75.3494 19.1307 74.9119 19.6193 74.5938 20.2557C74.2869 20.892 74.1335 21.642 74.1335 22.5057V38H65.7983ZM110.236 38V11.8182H118.571V38H110.236ZM114.412 8.76705C113.241 8.76705 112.236 8.38068 111.395 7.60795C110.554 6.82386 110.134 5.88068 110.134 4.77841C110.134 3.6875 110.554 2.75568 111.395 1.98295C112.236 1.19886 113.241 0.806816 114.412 0.806816C115.594 0.806816 116.599 1.19886 117.429 1.98295C118.27 2.75568 118.69 3.6875 118.69 4.77841C118.69 5.88068 118.27 6.82386 117.429 7.60795C116.599 8.38068 115.594 8.76705 114.412 8.76705ZM133.439 38.375C131.507 38.375 129.751 37.875 128.172 36.875C126.592 35.875 125.331 34.375 124.388 32.375C123.445 30.375 122.973 27.892 122.973 24.9261C122.973 21.8466 123.462 19.3125 124.439 17.3239C125.416 15.3352 126.695 13.8636 128.274 12.9091C129.865 11.9545 131.575 11.4773 133.405 11.4773C134.78 11.4773 135.956 11.7159 136.933 12.1932C137.911 12.6591 138.717 13.2614 139.354 14C139.99 14.7386 140.473 15.5057 140.803 16.3011H140.973V3.09091H149.308V38H141.058V33.7557H140.803C140.45 34.5625 139.95 35.3182 139.303 36.0227C138.655 36.7273 137.842 37.2955 136.865 37.7273C135.899 38.1591 134.757 38.375 133.439 38.375ZM136.337 31.8807C137.348 31.8807 138.212 31.5966 138.928 31.0284C139.643 30.4489 140.195 29.6364 140.581 28.5909C140.967 27.5455 141.161 26.3182 141.161 24.9091C141.161 23.4773 140.967 22.2443 140.581 21.2102C140.206 20.1761 139.655 19.3807 138.928 18.8239C138.212 18.267 137.348 17.9886 136.337 17.9886C135.303 17.9886 134.428 18.2727 133.712 18.8409C132.996 19.4091 132.45 20.2102 132.075 21.2443C131.712 22.2784 131.53 23.5 131.53 24.9091C131.53 26.3182 131.717 27.5455 132.092 28.5909C132.467 29.6364 133.007 30.4489 133.712 31.0284C134.428 31.5966 135.303 31.8807 136.337 31.8807ZM154.58 38V11.8182H162.915V38H154.58ZM158.756 8.76705C157.585 8.76705 156.58 8.38068 155.739 7.60795C154.898 6.82386 154.477 5.88068 154.477 4.77841C154.477 3.6875 154.898 2.75568 155.739 1.98295C156.58 1.19886 157.585 0.806816 158.756 0.806816C159.938 0.806816 160.943 1.19886 161.773 1.98295C162.614 2.75568 163.034 3.6875 163.034 4.77841C163.034 5.88068 162.614 6.82386 161.773 7.60795C160.943 8.38068 159.938 8.76705 158.756 8.76705Z" fill="#EDEDED"/>
<path d="M172.908 38.4943C171.68 38.4943 170.629 38.0625 169.754 37.1989C168.891 36.3352 168.464 35.2898 168.476 34.0625C168.464 32.858 168.891 31.8295 169.754 30.9773C170.629 30.1136 171.68 29.6818 172.908 29.6818C174.067 29.6818 175.089 30.1136 175.976 30.9773C176.874 31.8295 177.328 32.858 177.339 34.0625C177.328 34.8807 177.112 35.625 176.692 36.2955C176.283 36.9659 175.743 37.5 175.072 37.8977C174.413 38.2955 173.692 38.4943 172.908 38.4943Z" fill="#FF4C29"/>
</svg>
